# xmcd
#
# Track frame offsets:
#  150
#  38953
#  63142
#  80656
#  113588
#  128555
#  186749
#  207309
#
# Disc length: 3055 seconds
#
# Revision: 0
# Processed by: cddbd v1.5.1PL0 Copyright (c) Steve Scherf et al.
# Submitted via: AltoMP3_Maker 3.0
#
DISCID=6d0bed08
DTITLE=BIOSPHERE - Celtia
DYEAR=1900
DGENRE=
TTITLE0=Esprits des éléments
TTITLE1=La clairière sacrée
TTITLE2=Epona
TTITLE3=La force du clan
TTITLE4=L'âme de la forêt
TTITLE5=A la lune
TTITLE6=Sortilèges
TTITLE7=Légendes de la cité d'Ys
EXTD=
EXTT0=
EXTT1=
EXTT2=
EXTT3=
EXTT4=
EXTT5=
EXTT6=
EXTT7=
PLAYORDER=
